<?xml version="1.0" encoding="UTF-8"?>
<svg id="Layer_2" data-name="Layer 2" xmlns="http://www.w3.org/2000/svg" viewBox="0 0 97.29 68.39">
  <defs>
    <style>
      .cls-1 {
        fill: #542c85;
        stroke-width: 0px;
      }
    </style>
  </defs>
  <g id="icons">
    <path class="cls-1" d="M55.56,24.52c-6.95-1.4-22.03-4.43-27.45.72-1.69,2.72,1.69,7.67,3.78,9.93,7.65,7.95,21.42,5,29.73-.58,10.81-6.72,8.61-17.13-.51-24.13-6.39-4.55-14.38-5.88-22.1-5.64-12.54-.05-23.09,2.59-27.99,15.3-2.99,7.63-1.28,16.37,3.53,22.86,4.84,6.58,13.03,11.13,20.92,13.8,8.58,2.85,17.25,2.61,26.44,1.31,12.48-1.72,24.04-6.7,34.6-13.7.23-.15.55-.09.7.14.13.19.1.44-.04.61-10.69,12.46-26.99,20.52-43.61,22.71-19.91,3.03-44.05-6.54-51.42-26.43C-3.82,26.51,3.02,7.15,18.7,1.73,25.41-.74,32.41-.02,39.17.58c9.87.86,20.43,3.47,27.64,10.7,9.17,9.15,8.91,20.23-.78,28.85-5.36,5-12.22,8.16-19.57,8.75-9.98.94-19.58-3.68-24.12-12.89-6.52-12.82,1.74-20.61,14.73-18.89,6.89.84,13.13,3.3,18.86,6.49.5.27.19,1.07-.36.93h0Z"/>
  </g>
</svg>